<svg xmlns="http://www.w3.org/2000/svg" xmlns:xlink="http://www.w3.org/1999/xlink" width="500" zoomAndPan="magnify" viewBox="0 0 375 374.999991" height="500" preserveAspectRatio="xMidYMid meet" version="1.0"><defs><clipPath id="4a92161041"><path d="M 155 98 L 262 98 L 262 244 L 155 244 Z M 155 98 " clip-rule="nonzero"/></clipPath><clipPath id="7a760c4c28"><path d="M 247.898438 87.792969 L 282.253906 212.132812 L 157.914062 246.488281 L 123.558594 122.148438 Z M 247.898438 87.792969 " clip-rule="nonzero"/></clipPath><clipPath id="1f8289a810"><path d="M 247.898438 87.792969 L 282.253906 212.132812 L 157.914062 246.488281 L 123.558594 122.148438 Z M 247.898438 87.792969 " clip-rule="nonzero"/></clipPath><clipPath id="f85f8c9fa8"><path d="M 211 123 L 247 123 L 247 174 L 211 174 Z M 211 123 " clip-rule="nonzero"/></clipPath><clipPath id="583abd376b"><path d="M 247.898438 87.792969 L 282.253906 212.132812 L 157.914062 246.488281 L 123.558594 122.148438 Z M 247.898438 87.792969 " clip-rule="nonzero"/></clipPath><clipPath id="f3444f973a"><path d="M 247.898438 87.792969 L 282.253906 212.132812 L 157.914062 246.488281 L 123.558594 122.148438 Z M 247.898438 87.792969 " clip-rule="nonzero"/></clipPath><clipPath id="4272ddc067"><path d="M 182 218 L 227 218 L 227 286.992188 L 182 286.992188 Z M 182 218 " clip-rule="nonzero"/></clipPath><clipPath id="607061eb29"><path d="M 94 163 L 206 163 L 206 286.992188 L 94 286.992188 Z M 94 163 " clip-rule="nonzero"/></clipPath></defs><g clip-path="url(#4a92161041)"><g clip-path="url(#7a760c4c28)"><g clip-path="url(#1f8289a810)"><path fill="#ffffff" d="M 172.351562 238.734375 L 197.191406 194.929688 L 193.210938 192.675781 L 198.464844 183.414062 C 207.582031 187.488281 218.117188 188.542969 228.476562 185.683594 C 252.171875 179.132812 266.125 154.527344 259.578125 130.828125 C 253.03125 107.128906 228.421875 93.175781 204.726562 99.726562 C 181.027344 106.273438 167.074219 130.878906 173.625 154.578125 C 176.433594 164.75 182.574219 173.117188 190.539062 178.84375 L 185.253906 188.164062 L 181.277344 185.910156 L 156.4375 229.710938 C 155.191406 231.910156 154.953125 234.402344 155.578125 236.660156 C 156.203125 238.917969 157.6875 240.933594 159.882812 242.179688 C 164.277344 244.671875 169.859375 243.128906 172.351562 238.734375 Z M 207.164062 108.542969 C 226 103.335938 245.558594 114.425781 250.761719 133.261719 C 255.96875 152.101562 244.875 171.660156 226.039062 176.863281 C 207.203125 182.070312 187.644531 170.976562 182.441406 152.140625 C 177.234375 133.304688 188.324219 113.746094 207.164062 108.542969 Z M 207.164062 108.542969 " fill-opacity="1" fill-rule="nonzero"/></g></g></g><g clip-path="url(#f85f8c9fa8)"><g clip-path="url(#583abd376b)"><g clip-path="url(#f3444f973a)"><path fill="#ffffff" d="M 236.972656 154.171875 C 231.023438 164.667969 221.273438 171.332031 211.410156 172.808594 C 215.429688 173.347656 219.621094 173.101562 223.777344 171.953125 C 240.269531 167.394531 249.945312 150.332031 245.386719 133.835938 C 244.28125 129.832031 242.429688 126.230469 240.035156 123.132812 C 243.621094 132.28125 242.824219 143.851562 236.972656 154.171875 Z M 236.972656 154.171875 " fill-opacity="1" fill-rule="nonzero"/></g></g></g><g clip-path="url(#4272ddc067)"><path fill="#ffffff" d="M 225.304688 270.097656 L 195.523438 218.527344 L 182.394531 241.296875 L 205.582031 281.46875 C 207.675781 285.097656 211.503906 287.167969 215.441406 287.167969 C 217.371094 287.167969 219.324219 286.664062 221.113281 285.628906 C 226.589844 282.472656 228.433594 275.546875 225.304688 270.097656 Z M 225.304688 270.097656 " fill-opacity="1" fill-rule="nonzero"/></g><g clip-path="url(#607061eb29)"><path fill="#ffffff" d="M 204.40625 190.203125 L 191.78125 212.074219 L 178.625 234.84375 L 158.285156 270.070312 C 152.195312 280.628906 140.824219 287.195312 128.644531 287.195312 C 116.269531 287.195312 105.179688 280.796875 98.976562 270.070312 C 92.777344 259.371094 92.777344 246.546875 98.976562 235.820312 L 134.570312 174.222656 C 138.257812 167.824219 144.875 163.996094 152.25 163.996094 C 159.625 163.996094 166.246094 167.824219 169.964844 174.222656 L 171.25 176.457031 L 174.9375 182.824219 L 161.777344 205.59375 L 152.25 189.113281 L 118.730469 247.191406 C 115.738281 252.359375 117.722656 256.941406 118.730469 258.671875 C 119.734375 260.402344 122.695312 264.425781 128.675781 264.425781 C 132.753906 264.425781 136.578125 262.21875 138.589844 258.671875 L 165.492188 212.074219 L 178.652344 189.308594 L 184.683594 178.832031 C 187.84375 173.382812 194.796875 171.511719 200.246094 174.667969 C 205.691406 177.796875 207.566406 184.753906 204.40625 190.203125 Z M 204.40625 190.203125 " fill-opacity="1" fill-rule="nonzero"/></g><path fill="#ffffff" d="M 198.875 163.160156 C 204.964844 176.875 225.277344 168.46875 219.914062 154.441406 C 213.792969 140.753906 193.484375 149.164062 198.875 163.160156 Z M 198.875 163.160156 " fill-opacity="1" fill-rule="nonzero"/></svg>