<svg xmlns="http://www.w3.org/2000/svg" xmlns:xlink="http://www.w3.org/1999/xlink" width="500" zoomAndPan="magnify" viewBox="0 0 375 374.999991" height="500" preserveAspectRatio="xMidYMid meet" version="1.0"><defs><clipPath id="cf8a6d70a4"><path d="M 115 19 L 316 19 L 316 293 L 115 293 Z M 115 19 " clip-rule="nonzero"/></clipPath><clipPath id="632b2efd5f"><path d="M 290.078125 0 L 354.683594 233.824219 L 120.863281 298.429688 L 56.257812 64.605469 Z M 290.078125 0 " clip-rule="nonzero"/></clipPath><clipPath id="53525bdeac"><path d="M 290.078125 0 L 354.683594 233.824219 L 120.863281 298.429688 L 56.257812 64.605469 Z M 290.078125 0 " clip-rule="nonzero"/></clipPath><clipPath id="6e4b7a17c4"><path d="M 221 66 L 288 66 L 288 161 L 221 161 Z M 221 66 " clip-rule="nonzero"/></clipPath><clipPath id="21d1582cf0"><path d="M 290.078125 0 L 354.683594 233.824219 L 120.863281 298.429688 L 56.257812 64.605469 Z M 290.078125 0 " clip-rule="nonzero"/></clipPath><clipPath id="de837613f3"><path d="M 290.078125 0 L 354.683594 233.824219 L 120.863281 298.429688 L 56.257812 64.605469 Z M 290.078125 0 " clip-rule="nonzero"/></clipPath><clipPath id="b72772bab8"><path d="M 166 245 L 251 245 L 251 374.597656 L 166 374.597656 Z M 166 245 " clip-rule="nonzero"/></clipPath><clipPath id="876dd1ae60"><path d="M 1 143 L 212 143 L 212 374.597656 L 1 374.597656 Z M 1 143 " clip-rule="nonzero"/></clipPath><clipPath id="6f6d712eb5"><rect x="0" width="355" y="0" height="375"/></clipPath></defs><g transform="matrix(1, 0, 0, 1, 11, 0)"><g clip-path="url(#6f6d712eb5)"><g clip-path="url(#cf8a6d70a4)"><g clip-path="url(#632b2efd5f)"><g clip-path="url(#53525bdeac)"><path fill="#ffffff" d="M 148.015625 283.847656 L 194.726562 201.472656 L 187.238281 197.230469 L 197.117188 179.8125 C 214.265625 187.476562 234.074219 189.464844 253.554688 184.082031 C 298.117188 171.769531 324.355469 125.492188 312.042969 80.929688 C 299.726562 36.363281 253.453125 10.125 208.890625 22.4375 C 164.324219 34.753906 138.089844 81.023438 150.40625 125.589844 C 155.691406 144.71875 167.238281 160.453125 182.214844 171.222656 L 172.277344 188.75 L 164.796875 184.507812 L 118.085938 266.882812 C 115.746094 271.011719 115.300781 275.703125 116.472656 279.945312 C 117.644531 284.1875 120.433594 287.980469 124.566406 290.324219 C 132.832031 295.011719 143.328125 292.113281 148.015625 283.847656 Z M 213.476562 39.019531 C 248.898438 29.234375 285.679688 50.085938 295.464844 85.507812 C 305.253906 120.933594 284.394531 157.710938 248.972656 167.5 C 213.554688 177.285156 176.773438 156.429688 166.984375 121.007812 C 157.199219 85.585938 178.050781 48.808594 213.476562 39.019531 Z M 213.476562 39.019531 " fill-opacity="1" fill-rule="nonzero"/></g></g></g><g clip-path="url(#6e4b7a17c4)"><g clip-path="url(#21d1582cf0)"><g clip-path="url(#de837613f3)"><path fill="#ffffff" d="M 269.535156 124.824219 C 258.34375 144.566406 240.011719 157.097656 221.464844 159.871094 C 229.023438 160.882812 236.902344 160.421875 244.714844 158.265625 C 275.734375 149.695312 293.929688 117.605469 285.359375 86.589844 C 283.277344 79.054688 279.796875 72.28125 275.292969 66.457031 C 282.035156 83.660156 280.535156 105.421875 269.535156 124.824219 Z M 269.535156 124.824219 " fill-opacity="1" fill-rule="nonzero"/></g></g></g><g clip-path="url(#b72772bab8)"><path fill="#ffffff" d="M 247.589844 342.824219 L 191.589844 245.847656 L 166.898438 288.664062 L 210.5 364.207031 C 214.441406 371.035156 221.640625 374.921875 229.046875 374.921875 C 232.671875 374.921875 236.347656 373.976562 239.710938 372.035156 C 250.007812 366.097656 253.472656 353.070312 247.589844 342.824219 Z M 247.589844 342.824219 " fill-opacity="1" fill-rule="nonzero"/></g><g clip-path="url(#876dd1ae60)"><path fill="#ffffff" d="M 208.296875 192.578125 L 184.550781 233.714844 L 159.808594 276.527344 L 121.5625 342.773438 C 110.109375 362.628906 88.730469 374.976562 65.824219 374.976562 C 42.554688 374.976562 21.695312 362.945312 10.035156 342.773438 C -1.628906 322.652344 -1.628906 298.539062 10.035156 278.367188 L 76.960938 162.53125 C 83.898438 150.5 96.347656 143.304688 110.214844 143.304688 C 124.085938 143.304688 136.535156 150.5 143.523438 162.53125 L 145.9375 166.734375 L 152.871094 178.710938 L 128.128906 221.527344 L 110.214844 190.53125 L 47.175781 299.746094 C 41.554688 309.464844 45.285156 318.082031 47.175781 321.339844 C 49.066406 324.597656 54.636719 332.160156 65.878906 332.160156 C 73.546875 332.160156 80.746094 328.011719 84.527344 321.339844 L 135.117188 233.714844 L 159.859375 190.898438 L 171.207031 171.199219 C 177.144531 160.953125 190.222656 157.433594 200.46875 163.371094 C 210.710938 169.253906 214.230469 182.335938 208.296875 192.578125 Z M 208.296875 192.578125 " fill-opacity="1" fill-rule="nonzero"/></g><path fill="#ffffff" d="M 197.894531 141.726562 C 209.347656 167.519531 247.539062 151.707031 237.453125 125.335938 C 225.945312 99.59375 187.753906 115.40625 197.894531 141.726562 Z M 197.894531 141.726562 " fill-opacity="1" fill-rule="nonzero"/></g></g></svg>